<?xml version="1.0" standalone="no"?>
<!DOCTYPE svg PUBLIC "-//W3C//DTD SVG 20010904//EN"
 "http://www.w3.org/TR/2001/REC-SVG-20010904/DTD/svg10.dtd">
<svg version="1.0" xmlns="http://www.w3.org/2000/svg"
 width="300.000000pt" height="300.000000pt" viewBox="0 0 300.000000 300.000000"
 preserveAspectRatio="xMidYMid meet">
<metadata>
Created by potrace 1.10, written by Peter Selinger 2001-2011
</metadata>
<g transform="translate(0.000000,300.000000) scale(0.100000,-0.100000)"
fill="#000000" stroke="none">
<path d="M615 2308 c-20 -17 -45 -49 -57 -71 -38 -75 -34 -198 7 -213 26 -10
27 1 5 40 -19 32 -21 41 -11 86 13 62 33 101 67 135 43 43 59 30 58 -45 0 -36
-6 -92 -13 -124 -12 -53 -20 -65 -73 -115 -93 -87 -141 -184 -106 -219 21 -21
45 -13 81 27 44 49 59 78 87 164 12 37 26 67 30 67 5 0 8 15 8 33 -1 17 5 73
12 124 12 83 12 94 -4 117 -22 34 -48 33 -91 -6z m25 -323 c0 -15 -55 -124
-76 -152 -46 -61 -75 -26 -36 44 30 56 112 134 112 108z"/>
<path d="M942 2268 c-7 -7 -12 -16 -12 -20 0 -12 28 -10 36 3 10 17 -10 31
-24 17z"/>
<path d="M986 2210 c-14 -17 -29 -49 -32 -70 -4 -22 -17 -49 -30 -61 -30 -28
-31 -13 -4 58 24 64 8 83 -19 21 -10 -24 -21 -53 -25 -64 -9 -29 -42 -58 -50
-45 -4 6 0 27 9 47 18 43 19 54 5 54 -6 0 -22 -25 -36 -55 -26 -54 -40 -72
-50 -62 -5 5 6 54 21 90 5 12 2 17 -8 17 -17 0 -37 -55 -37 -103 0 -33 24 -45
48 -24 10 9 27 13 43 10 15 -3 32 1 41 10 8 9 25 13 40 10 19 -4 30 1 41 18
14 19 19 20 32 9 19 -16 68 2 91 34 12 17 16 18 23 7 5 -8 14 -10 21 -6 10 6
9 11 -4 20 -15 12 -15 16 3 58 28 65 7 69 -25 5 -32 -64 -61 -98 -86 -98 -23
0 -25 48 -3 90 17 32 35 40 35 14 0 -9 6 -14 13 -11 6 2 12 15 12 28 0 37 -37
37 -69 -1z"/>
<path d="M1157 2205 c-22 -45 -3 -56 23 -13 23 39 25 48 7 48 -7 0 -21 -16
-30 -35z"/>
<path d="M1220 2205 c0 -9 -11 -27 -25 -41 -14 -14 -25 -27 -25 -30 0 -3 -22
-27 -50 -54 -48 -46 -62 -81 -40 -95 21 -13 57 23 70 70 7 25 21 50 31 56 17
8 69 86 69 102 0 4 -7 7 -15 7 -8 0 -15 -7 -15 -15z"/>
<path d="M2266 1935 c-23 -24 -42 -53 -43 -66 l-1 -24 16 25 c38 55 65 80 95
88 l32 8 -29 6 c-25 5 -36 -1 -70 -37z"/>
<path d="M879 1958 c-1 -2 -3 -110 -5 -240 l-3 -238 44 0 45 0 0 105 c0 58 4
105 8 105 5 0 19 -47 32 -105 l23 -105 49 0 c36 0 49 4 46 13 -3 6 -20 62 -38
124 l-32 112 31 102 c17 56 31 107 31 113 0 6 -20 12 -44 13 l-45 1 -14 -66
c-9 -37 -18 -82 -22 -99 -13 -64 -25 -32 -25 67 l0 100 -40 0 c-22 0 -41 -1
-41 -2z m201 -64 c0 -4 -7 -3 -16 0 -14 5 -15 4 -5 -8 9 -11 9 -16 0 -22 -7
-4 -9 -3 -5 4 3 6 -3 13 -14 17 -16 5 -17 9 -7 20 11 12 47 4 47 -11z m-124
-173 c-2 -8 -12 -21 -24 -29 -21 -14 -22 -13 -18 19 3 19 5 37 5 42 1 4 9 2
20 -5 10 -6 18 -18 17 -27z m54 -2 c0 -27 -2 -30 -15 -19 -24 20 -19 39 13 49
1 1 2 -13 2 -30z"/>
<path d="M1174 1723 l2 -238 42 -3 42 -3 0 105 0 106 25 0 25 0 0 -105 0 -105
43 0 42 0 0 238 0 237 -42 3 -43 3 0 -100 0 -101 -25 0 c-25 0 -25 0 -25 100
l0 100 -44 0 -43 0 1 -237z m62 -14 c-16 -23 -16 -23 -16 16 0 36 1 38 16 23
15 -15 15 -18 0 -39z m114 9 c0 -31 0 -31 -21 -12 -12 10 -23 18 -26 16 -3 -2
-8 0 -11 4 -4 4 3 4 16 1 15 -3 22 -1 22 9 0 8 5 14 10 14 6 0 10 -14 10 -32z"/>
<path d="M1484 1720 l-29 -240 42 0 42 0 7 60 c6 54 9 60 30 60 21 0 24 -6 30
-60 l7 -60 45 0 45 0 -6 38 c-3 20 -15 123 -27 227 -12 105 -24 196 -26 203
-2 8 -25 12 -67 12 l-64 0 -29 -240z m108 47 c2 -73 0 -97 -9 -97 -7 0 -13 -5
-13 -11 0 -7 12 -10 30 -7 20 3 30 0 30 -9 0 -7 -7 -13 -15 -13 -8 0 -15 -5
-15 -11 0 -5 -5 -7 -10 -4 -6 4 -8 11 -5 16 4 5 -1 9 -9 9 -13 0 -16 13 -16
68 0 88 11 175 21 165 4 -4 9 -52 11 -106z m-52 1 c0 -22 -15 -37 -28 -29 -7
4 -10 15 -6 24 7 20 34 23 34 5z m-2 -83 c1 -16 -3 -25 -12 -25 -19 0 -27 25
-13 39 17 17 22 14 25 -14z m117 -126 c-4 -12 -3 -19 1 -16 5 3 10 -7 10 -21
2 -26 1 -26 -9 -4 -5 12 -16 22 -24 22 -19 0 -16 17 5 29 24 14 24 14 17 -10z"/>
<path d="M1800 1953 c0 -14 -50 -417 -55 -445 -4 -27 -3 -28 39 -28 l43 0 7
60 c6 55 9 60 31 60 21 0 25 -5 25 -29 0 -16 3 -43 6 -60 6 -29 9 -31 51 -31
l45 0 -6 38 c-3 20 -15 114 -26 207 -11 94 -22 185 -25 203 l-6 32 -64 0 c-36
0 -65 -3 -65 -7z m75 -96 c-3 -7 -1 -51 3 -99 6 -69 5 -88 -5 -88 -7 0 -13 -4
-13 -10 0 -5 14 -10 30 -10 17 0 30 -4 30 -10 0 -5 -7 -10 -15 -10 -8 0 -15
-4 -15 -10 0 -5 -7 -7 -15 -4 -8 4 -13 10 -10 14 3 5 0 10 -6 12 -11 4 -14
212 -3 230 8 12 24 0 19 -15z m-45 -92 c0 -18 -27 -38 -34 -26 -9 14 3 38 19
38 8 0 15 -6 15 -12z m-2 -80 c1 -16 -3 -25 -12 -25 -16 0 -25 19 -18 38 8 21
28 13 30 -13z m-20 -70 c0 -17 -6 -25 -18 -25 -13 0 -17 6 -13 20 3 11 9 17
14 14 5 -3 9 0 9 5 0 6 2 11 4 11 2 0 4 -11 4 -25z m125 -11 c-3 -9 -1 -19 6
-23 14 -9 3 -43 -12 -38 -16 5 -17 77 -1 77 8 0 11 -6 7 -16z"/>
<path d="M2410 1945 c-16 -8 -29 -10 -36 -4 -15 12 -68 -7 -59 -21 8 -14 38
-13 53 2 8 8 12 8 12 1 0 -16 -19 -29 -70 -49 -25 -9 -57 -26 -72 -36 -14 -10
-33 -18 -42 -18 -9 0 -13 -6 -10 -15 4 -9 -3 -16 -21 -21 -20 -5 -23 -9 -13
-15 8 -6 -9 -9 -47 -10 l-60 -2 55 -7 c46 -6 49 -7 20 -10 l-35 -2 30 -8 c26
-6 34 -2 65 32 30 32 41 38 75 38 30 0 44 -5 53 -21 11 -18 20 -20 55 -15 23
3 48 6 55 5 42 0 62 -5 59 -14 -2 -6 -45 -10 -100 -10 -54 0 -97 -3 -97 -7 0
-9 22 -11 115 -8 56 1 68 -1 58 -11 -9 -9 -69 -14 -200 -17 -153 -4 -182 -7
-153 -16 35 -10 34 -11 -30 -17 l-65 -6 54 -1 c43 -2 52 -5 47 -17 -3 -8 -1
-15 4 -15 6 0 10 -4 10 -9 0 -5 -21 -6 -47 -3 -27 2 -45 1 -41 -3 4 -5 3 -14
-3 -22 -9 -10 -3 -13 30 -13 24 0 49 -6 57 -15 9 -8 24 -15 34 -15 12 0 20 -8
22 -22 3 -26 43 -37 62 -18 8 9 5 11 -13 5 -31 -9 -45 12 -26 41 14 21 13 22
-25 17 -35 -5 -40 -3 -40 14 0 18 4 20 39 13 22 -4 57 -6 78 -5 21 1 44 -2 51
-8 8 -6 17 -5 27 3 21 18 125 19 125 2 0 -8 -9 -16 -20 -19 -19 -5 -29 -23
-12 -23 23 0 42 29 45 67 1 31 5 39 14 31 7 -5 17 -7 23 -3 18 11 11 35 -14
47 -22 9 -23 13 -11 32 7 11 18 38 25 58 11 35 10 39 -18 69 -19 21 -43 34
-68 38 l-39 6 24 24 24 24 9 -23 c10 -27 32 -14 26 16 -4 23 -18 26 -48 9z
m40 -87 l35 -22 -31 -6 c-37 -8 -204 -12 -204 -5 0 6 59 36 90 46 44 13 74 10
110 -13z m-80 -215 c-53 -45 -60 -47 -83 -24 l-21 21 27 0 c33 0 68 17 81 37
5 10 11 12 18 5 8 -8 1 -20 -22 -39z m64 -15 c-7 -11 -32 -10 -39 2 -11 18 5
30 25 18 10 -7 16 -16 14 -20z m-184 -3 c0 -11 -56 -15 -80 -6 -9 4 -1 8 20
12 44 8 61 7 60 -6z"/>
<path d="M2345 1570 c-3 -5 -25 -11 -48 -12 l-42 -1 38 -4 c22 -3 37 -10 37
-17 0 -23 27 -38 47 -28 25 14 30 65 6 60 -9 -2 -20 -14 -23 -28 -4 -16 -8
-21 -13 -13 -5 7 -3 22 3 33 11 20 7 29 -5 10z"/>
<path d="M2212 1558 c-14 -14 -16 -38 -4 -38 10 0 42 33 42 43 0 11 -25 8 -38
-5z"/>
<path d="M1604 1444 c-49 -24 -54 -47 -54 -240 l0 -176 29 -29 c35 -35 81 -39
111 -9 24 24 31 25 24 5 -5 -11 1 -15 25 -15 l31 0 0 138 0 137 -55 -3 -55 -4
0 -34 c0 -24 5 -34 15 -34 13 0 15 -11 13 -62 -3 -60 -4 -63 -28 -63 l-25 0 0
160 0 160 25 0 c22 0 25 -4 25 -37 0 -36 1 -36 43 -40 l42 -3 0 43 c0 57 -22
97 -61 111 -43 15 -68 14 -105 -5z"/>
<path d="M358 1258 l-3 -193 -27 -3 c-25 -3 -28 -7 -28 -43 0 -39 0 -39 39
-39 28 0 49 8 70 26 l30 25 3 210 3 209 -42 0 -43 0 -2 -192z"/>
<path d="M556 1413 c-3 -21 -15 -114 -26 -208 -11 -93 -22 -182 -25 -197 -4
-27 -3 -28 40 -28 44 0 45 1 45 33 0 56 10 77 36 77 20 0 24 -5 24 -32 0 -68
8 -78 57 -78 43 0 44 1 39 28 -3 15 -14 106 -26 202 -11 96 -22 190 -25 208
l-6 32 -64 0 -63 0 -6 -37z m78 -104 c3 -34 6 -82 6 -105 0 -38 -3 -44 -21
-44 -15 0 -19 4 -15 16 3 9 6 56 6 105 0 102 14 119 24 28z m-44 -44 c0 -18
-27 -38 -34 -26 -9 14 3 38 19 38 8 0 15 -6 15 -12z m-2 -79 c1 -13 -5 -27
-13 -30 -11 -4 -15 2 -15 18 0 14 6 27 13 29 6 3 12 6 12 6 0 1 2 -10 3 -23z
m89 -49 c-2 -6 3 -17 12 -24 11 -9 12 -12 3 -13 -7 0 -10 -4 -7 -10 3 -5 1
-10 -5 -10 -7 0 -10 6 -7 14 3 8 -1 20 -9 26 -11 10 -14 9 -14 -4 0 -14 -2
-15 -14 -4 -19 18 -10 33 20 36 17 1 24 -2 21 -11z m23 -87 c-9 -17 -15 -19
-23 -10 -9 9 -7 15 7 26 25 18 31 12 16 -16z"/>
<path d="M803 1240 c3 -211 3 -211 29 -236 48 -48 149 -39 178 17 7 12 12 101
14 225 l2 204 -43 0 -43 0 -2 -197 c-3 -197 -3 -198 -25 -201 l-23 -3 0 200 0
201 -45 0 -45 0 3 -210z m187 6 c0 -18 -26 -40 -34 -27 -9 14 4 41 20 41 8 0
14 -6 14 -14z"/>
<path d="M1100 1215 l0 -235 46 0 46 0 -7 145 c-5 103 -4 145 4 145 6 0 11
-14 11 -32 0 -17 10 -83 22 -145 l22 -113 51 0 50 0 0 235 0 235 -42 0 -43 0
0 -124 c0 -69 4 -127 9 -130 5 -4 11 -2 13 3 1 5 9 2 17 -6 12 -14 12 -15 0
-11 -8 3 -19 -2 -26 -11 -15 -20 -15 -20 -43 129 -30 162 -24 150 -81 150
l-49 0 0 -235z m50 180 c0 -8 5 -15 10 -15 6 0 10 -5 10 -11 0 -16 -21 -6 -38
19 -13 20 -13 22 2 22 9 0 16 -7 16 -15z m44 -57 c-3 -12 0 -18 10 -18 22 0
20 -17 -4 -30 -21 -11 -22 -10 -22 35 0 54 1 61 12 45 5 -8 7 -23 4 -32z m-29
-38 c7 -12 -32 -56 -41 -47 -4 4 0 15 9 25 10 10 14 22 10 25 -3 4 -1 7 5 7 6
0 14 -4 17 -10z m156 -23 c-1 -4 -1 -15 -1 -24 0 -16 -1 -16 -16 -1 -9 9 -13
21 -9 28 7 12 27 10 26 -3z m5 -142 c2 -22 1 -26 -6 -15 -5 8 -10 11 -10 6 0
-6 -6 -1 -14 10 -11 14 -11 21 -3 26 19 12 30 4 33 -27z m-16 -105 c15 -28 4
-43 -20 -28 -14 9 -16 14 -7 20 9 6 9 8 0 8 -7 0 -13 5 -13 10 0 18 29 11 40
-10z"/>
<path d="M1886 1423 c-3 -16 -15 -107 -26 -203 -11 -96 -23 -190 -26 -207 l-5
-33 46 0 45 0 0 55 c0 54 0 55 30 55 30 0 30 -1 30 -55 l0 -55 48 0 48 0 -22
178 c-12 97 -25 203 -29 235 l-6 57 -64 0 c-61 0 -64 -1 -69 -27z m74 -97 c0
-23 3 -71 6 -105 7 -59 6 -61 -16 -61 -20 0 -22 4 -16 31 3 17 6 65 6 105 0
43 4 74 10 74 6 0 10 -20 10 -44z m-40 -65 c0 -5 -6 -14 -14 -20 -16 -13 -32
2 -21 19 8 12 35 13 35 1z m-4 -73 c-1 -26 -17 -42 -27 -26 -9 15 1 48 15 48
7 0 12 -10 12 -22z m99 -73 c10 -8 9 -13 -3 -25 -14 -13 -15 -12 -9 2 3 9 -1
22 -9 28 -9 9 -14 9 -14 2 0 -16 -27 -4 -34 14 -4 11 -1 14 13 9 11 -3 23 0
27 7 6 10 9 8 12 -7 2 -11 9 -25 17 -30z m23 -71 c4 2 7 -7 7 -19 0 -14 -4
-20 -9 -15 -5 5 -16 6 -25 3 -12 -4 -11 -1 4 11 17 15 17 17 3 12 -21 -6 -24
14 -5 33 10 10 13 8 15 -9 2 -11 6 -18 10 -16z"/>
<path d="M2151 1253 c-12 -109 -25 -215 -28 -235 l-6 -38 47 0 46 0 0 55 c0
54 0 55 30 55 30 0 30 -1 30 -55 l0 -55 45 0 c29 0 45 4 45 13 0 6 -12 112
-26 235 l-27 222 -66 0 -67 0 -23 -197z m99 58 c0 -32 3 -79 6 -105 6 -43 5
-46 -16 -46 -22 0 -23 2 -16 61 3 34 6 82 6 105 0 24 5 44 10 44 6 0 10 -26
10 -59z m-50 -41 c13 -8 13 -11 -2 -26 -19 -19 -45 -10 -29 10 6 7 8 16 4 19
-10 10 10 8 27 -3z m5 -85 c0 -29 -20 -41 -29 -18 -6 15 9 43 23 43 3 0 6 -11
6 -25z m101 -72 c11 -4 11 -7 -1 -19 -15 -16 -29 -19 -21 -5 4 5 3 17 -1 27
-6 15 -7 15 -18 1 -11 -15 -13 -14 -23 8 -11 24 -10 25 13 19 17 -4 25 -2 26
7 1 8 4 4 6 -9 3 -13 11 -26 19 -29z m-96 5 c0 -20 -16 -24 -23 -5 -4 7 -6 6
-6 -4 -1 -18 -31 -35 -31 -19 0 14 33 46 48 46 6 1 12 -8 12 -18z m106 -70
c-2 -18 -9 -34 -17 -36 -11 -3 -12 -2 -1 6 11 7 10 11 -4 16 -16 6 -16 8 1 26
24 26 25 26 21 -12z"/>
<path d="M2420 1326 c0 -68 3 -144 6 -170 6 -44 8 -46 40 -46 l33 0 3 170 3
170 -42 0 -43 0 0 -124z m51 0 c-12 -12 -18 -26 -14 -29 3 -4 1 -7 -5 -7 -7 0
-12 6 -12 13 0 20 30 58 41 51 6 -4 2 -15 -10 -28z m-3 -84 c-11 -13 -10 -15
5 -9 9 3 17 2 17 -3 0 -10 -5 -12 -32 -14 -6 -1 -13 11 -15 26 -3 22 0 25 17
21 17 -5 18 -8 8 -21z"/>
<path d="M2580 1318 c0 -73 3 -150 6 -170 6 -33 10 -38 34 -38 16 0 30 7 34
16 3 9 6 85 6 170 l0 154 -40 0 -40 0 0 -132z m53 13 c-11 -9 -22 -23 -26 -31
-5 -13 -6 -13 -6 0 -1 23 29 61 41 54 7 -5 4 -13 -9 -23z m-1 -71 c6 0 5 -7
-3 -17 -12 -15 -12 -16 6 -9 19 7 19 6 3 -10 -16 -16 -44 -11 -33 6 3 5 1 11
-5 15 -16 10 -11 28 6 21 9 -3 20 -6 26 -6z"/>
<path d="M2420 1030 l0 -50 43 0 43 0 0 50 -1 50 -42 0 -43 0 0 -50z"/>
<path d="M2580 1030 l0 -50 43 0 42 0 0 50 0 50 -42 0 -43 0 0 -50z"/>
</g>
</svg>
